<svg width="1222" height="213" viewBox="0 0 1222 213" fill="none" xmlns="http://www.w3.org/2000/svg">
<path d="M116.99 0.75409C155.331 0.75521 163.766 17.3448 163.766 37.7045C163.766 17.3448 172.201 0.75521 210.542 0.75409C210.334 20.9513 201.638 44.4913 163.766 44.4913C125.894 44.4913 117.198 20.9513 116.99 0.75409Z" fill="#ACB63B"/>
<path d="M116.99 50.524C155.331 50.5251 163.766 67.1147 163.766 87.4744C163.766 67.1147 172.201 50.5251 210.543 50.524C210.334 70.7212 201.638 94.2613 163.766 94.2613C125.894 94.2613 117.198 70.7212 116.99 50.524Z" fill="#659858"/>
<path fill-rule="evenodd" clip-rule="evenodd" d="M126.428 201.918C124.075 203.453 120.889 205.018 117.021 205.018V190.879C117.052 190.879 117.535 190.873 118.794 190.052C119.998 189.266 121.225 188.213 122.949 186.735C123.121 186.587 123.299 186.435 123.481 186.279C123.543 186.226 123.605 186.173 123.668 186.119C127.055 183.216 132.779 178.311 140.411 178.311C147.993 178.311 153.268 183.161 156.371 186.014C156.527 186.157 156.678 186.296 156.823 186.428C160.673 189.945 162.136 190.879 163.801 190.879C165.467 190.879 166.929 189.945 170.78 186.428C170.925 186.296 171.075 186.157 171.231 186.014C174.334 183.161 179.61 178.311 187.191 178.311C194.823 178.311 200.547 183.216 203.935 186.119C203.998 186.173 204.06 186.226 204.121 186.279C204.304 186.435 204.481 186.587 204.653 186.735C206.377 188.213 207.604 189.266 208.809 190.052C210.068 190.873 210.551 190.879 210.582 190.879V205.018C206.714 205.018 203.527 203.453 201.174 201.918C199.14 200.591 197.173 198.898 195.595 197.54C195.399 197.371 195.209 197.207 195.025 197.05C191.048 193.645 189.046 192.45 187.191 192.45C185.526 192.45 184.064 193.384 180.213 196.901C180.068 197.034 179.917 197.172 179.761 197.315C176.658 200.168 171.383 205.018 163.801 205.018C156.22 205.018 150.944 200.168 147.841 197.315C147.685 197.172 147.535 197.034 147.39 196.901C143.539 193.384 142.077 192.45 140.411 192.45C138.557 192.45 136.555 193.645 132.577 197.05C132.394 197.207 132.204 197.371 132.007 197.54C130.43 198.898 128.463 200.591 126.428 201.918Z" fill="#4C7741"/>
<path fill-rule="evenodd" clip-rule="evenodd" d="M126.428 134.364C124.075 135.899 120.888 137.464 117.021 137.464V123.325C117.051 123.325 117.534 123.319 118.793 122.498C119.998 121.712 121.225 120.659 122.949 119.181C123.121 119.033 123.298 118.881 123.481 118.725C123.542 118.672 123.605 118.619 123.668 118.565C127.055 115.662 132.779 110.757 140.411 110.757C147.992 110.757 153.268 115.607 156.371 118.46C156.527 118.603 156.677 118.742 156.822 118.874C160.673 122.391 162.135 123.325 163.801 123.325C165.467 123.325 166.929 122.391 170.779 118.874C170.924 118.742 171.075 118.603 171.231 118.46C174.334 115.607 179.609 110.757 187.191 110.757C194.823 110.757 200.547 115.662 203.934 118.565C203.997 118.619 204.059 118.672 204.121 118.725C204.304 118.881 204.481 119.033 204.653 119.181C206.377 120.659 207.604 121.712 208.808 122.498C210.068 123.319 210.55 123.325 210.581 123.325V137.464C206.713 137.464 203.527 135.899 201.174 134.364C199.14 133.037 197.172 131.344 195.595 129.986C195.399 129.817 195.208 129.653 195.025 129.496C191.048 126.091 189.045 124.896 187.191 124.896C185.525 124.896 184.063 125.831 180.212 129.347C180.067 129.48 179.917 129.618 179.761 129.761C176.658 132.614 171.383 137.464 163.801 137.464C156.219 137.464 150.944 132.614 147.841 129.761C147.685 129.618 147.534 129.48 147.389 129.347C143.539 125.831 142.076 124.896 140.411 124.896C138.556 124.896 136.554 126.091 132.577 129.496C132.393 129.653 132.203 129.817 132.007 129.986C130.429 131.344 128.462 133.037 126.428 134.364Z" fill="#4C7741"/>
<path fill-rule="evenodd" clip-rule="evenodd" d="M126.746 166.105C124.426 167.807 121.127 169.67 117.021 169.67V155.531C116.985 155.531 116.967 155.534 116.967 155.534C116.967 155.533 117.404 155.465 118.476 154.678C119.684 153.791 120.92 152.599 122.645 150.935C122.817 150.769 122.994 150.598 123.176 150.423C124.986 148.678 127.315 146.469 129.978 144.735C132.716 142.951 136.214 141.392 140.411 141.392C148.255 141.392 153.616 146.951 156.631 150.077C156.802 150.254 156.964 150.423 157.12 150.583C161.095 154.667 162.46 155.531 163.801 155.531C165.142 155.531 166.507 154.667 170.482 150.583C170.638 150.423 170.801 150.254 170.971 150.077C173.986 146.951 179.347 141.392 187.191 141.392C191.388 141.392 194.886 142.951 197.624 144.735C200.287 146.469 202.616 148.678 204.426 150.423C204.608 150.598 204.785 150.769 204.957 150.935C206.682 152.599 207.918 153.791 209.126 154.678C210.198 155.465 210.635 155.533 210.635 155.534C210.635 155.534 210.617 155.531 210.581 155.531V169.67C206.476 169.67 203.176 167.807 200.856 166.105C198.826 164.615 196.867 162.718 195.291 161.191C195.094 161.001 194.904 160.817 194.72 160.64C192.861 158.849 191.406 157.523 189.998 156.607C188.667 155.739 187.809 155.531 187.191 155.531C185.85 155.531 184.485 156.396 180.51 160.48C180.355 160.639 180.192 160.808 180.021 160.985C177.006 164.111 171.645 169.67 163.801 169.67C155.957 169.67 150.596 164.111 147.581 160.985C147.41 160.808 147.247 160.639 147.092 160.48C143.117 156.396 141.752 155.531 140.411 155.531C139.793 155.531 138.935 155.739 137.604 156.607C136.197 157.523 134.741 158.849 132.882 160.64C132.698 160.817 132.508 161.001 132.311 161.191C130.735 162.718 128.776 164.615 126.746 166.105Z" fill="#ACB63B"/>
<path fill-rule="evenodd" clip-rule="evenodd" d="M46.7802 94.2613C72.6162 94.2613 93.5604 73.1602 93.5604 47.1306C93.5604 21.1011 72.6162 0 46.7802 0C20.9442 0 0 21.1011 0 47.1306C0 73.1602 20.9442 94.2613 46.7802 94.2613ZM47.5598 81.6931C66.9368 81.6931 82.645 65.8673 82.645 46.3451C82.645 26.823 66.9368 10.9971 47.5598 10.9971C28.1829 10.9971 12.4747 26.823 12.4747 46.3451C12.4747 65.8673 28.1829 81.6931 47.5598 81.6931Z" fill="#4C7741"/>
<ellipse cx="47.5599" cy="46.3452" rx="19.4917" ry="19.6378" fill="#ACB63B"/>
<path d="M0.00388037 118.625C38.345 118.627 46.7802 141.193 46.7802 162.76L46.8038 164.957L48.3395 164.957C86.2116 164.957 93.348 189.894 93.5565 211.289C55.2154 211.288 46.7802 188.721 46.7802 167.154C46.7802 188.721 38.345 211.288 0.00388037 211.289C0.212369 189.894 7.34878 164.957 45.2209 164.957C7.34878 164.957 0.212369 140.021 0.00388037 118.625Z" fill="#659858"/>
<path d="M46.8037 164.957C46.8037 144.597 52.2642 118.581 93.58 118.581C92.8274 142.963 84.6758 164.957 46.8037 164.957Z" fill="#ACB63B"/>
<path d="M1022.26 43.8315C1023.34 42.7492 1024.48 41.7543 1025.67 40.8466C1026.89 39.9039 1028.16 39.1184 1029.49 38.49C1030.85 37.8267 1032.3 37.3205 1033.84 36.9714C1035.37 36.5873 1037.05 36.3953 1038.86 36.3953C1041.8 36.3953 1044.4 36.9015 1046.67 37.914C1048.93 38.8915 1050.82 40.288 1052.32 42.1034C1053.86 43.8839 1055.01 46.0309 1055.78 48.5446C1056.58 51.0233 1056.98 53.7638 1056.98 56.7662V90.9621H1044.05V56.7662C1044.05 53.4845 1043.3 50.9535 1041.8 49.173C1040.29 47.3576 1038.01 46.4499 1034.94 46.4499C1032.7 46.4499 1030.61 46.9561 1028.65 47.9685C1026.7 48.981 1024.85 50.36 1023.1 52.1055V90.9621H1010.17V37.2332H1018.07C1019.75 37.2332 1020.85 38.0187 1021.37 39.5897L1022.26 43.8315Z" fill="#4C7741"/>
<path d="M973.799 36.3953C977.779 36.3953 981.392 37.0412 984.639 38.3329C987.921 39.6246 990.714 41.4575 993.018 43.8315C995.357 46.2055 997.155 49.1031 998.412 52.5245C999.669 55.9458 1000.3 59.7686 1000.3 63.9929C1000.3 68.2521 999.669 72.0924 998.412 75.5138C997.155 78.9351 995.357 81.8502 993.018 84.2591C990.714 86.668 987.921 88.5183 984.639 89.8101C981.392 91.1018 977.779 91.7476 973.799 91.7476C969.784 91.7476 966.136 91.1018 962.854 89.8101C959.573 88.5183 956.762 86.668 954.423 84.2591C952.119 81.8502 950.321 78.9351 949.029 75.5138C947.773 72.0924 947.144 68.2521 947.144 63.9929C947.144 59.7686 947.773 55.9458 949.029 52.5245C950.321 49.1031 952.119 46.2055 954.423 43.8315C956.762 41.4575 959.573 39.6246 962.854 38.3329C966.136 37.0412 969.784 36.3953 973.799 36.3953ZM973.799 81.7978C978.268 81.7978 981.567 80.2966 983.697 77.2942C985.861 74.2919 986.943 69.893 986.943 64.0977C986.943 58.3023 985.861 53.886 983.697 50.8487C981.567 47.8114 978.268 46.2928 973.799 46.2928C969.261 46.2928 965.892 47.8289 963.692 50.9011C961.528 53.9384 960.446 58.3373 960.446 64.0977C960.446 69.8581 961.528 74.2569 963.692 77.2942C965.892 80.2966 969.261 81.7978 973.799 81.7978Z" fill="#4C7741"/>
<path d="M936.822 90.9621H923.887V46.9212H898.961V76.0374C898.961 77.7132 899.362 79.0224 900.165 79.965C901.003 80.9076 902.137 81.3789 903.569 81.3789C904.372 81.3789 905.035 81.2916 905.559 81.1171C906.117 80.9076 906.589 80.6981 906.973 80.4887C907.392 80.2792 907.758 80.0872 908.072 79.9126C908.387 79.7031 908.701 79.5984 909.015 79.5984C909.399 79.5984 909.713 79.7031 909.958 79.9126C910.202 80.0872 910.464 80.3665 910.743 80.7505L914.618 87.0346C912.733 88.6056 910.569 89.7926 908.125 90.5956C905.681 91.3985 903.15 91.8 900.531 91.8C895.853 91.8 892.257 90.4908 889.744 87.8725C887.265 85.2192 886.026 81.5709 886.026 76.9277V46.9212H880.527C879.829 46.9212 879.235 46.6942 878.747 46.2404C878.258 45.7865 878.014 45.1058 878.014 44.1981V39.0661L886.654 37.5998L889.377 22.9893C889.552 22.291 889.884 21.7499 890.372 21.3659C890.861 20.9818 891.489 20.7898 892.257 20.7898H898.961V37.7045H936.822V90.9621ZM939.074 21.3659C939.074 22.483 938.847 23.5479 938.393 24.5603C937.939 25.5378 937.328 26.3931 936.56 27.1263C935.827 27.8594 934.937 28.4529 933.89 28.9068C932.877 29.3257 931.795 29.5352 930.643 29.5352C929.526 29.5352 928.478 29.3257 927.501 28.9068C926.523 28.4529 925.668 27.8594 924.935 27.1263C924.202 26.3931 923.608 25.5378 923.154 24.5603C922.735 23.5479 922.526 22.483 922.526 21.3659C922.526 20.2138 922.735 19.149 923.154 18.1715C923.608 17.159 924.202 16.2862 924.935 15.5531C925.668 14.785 926.523 14.1915 927.501 13.7726C928.478 13.3188 929.526 13.0918 930.643 13.0918C931.795 13.0918 932.877 13.3188 933.89 13.7726C934.937 14.1915 935.827 14.785 936.56 15.5531C937.328 16.2862 937.939 17.159 938.393 18.1715C938.847 19.149 939.074 20.2138 939.074 21.3659Z" fill="#4C7741"/>
<path d="M869.797 37.2332V90.9621H861.889C860.179 90.9621 859.096 90.1766 858.642 88.6056L857.752 84.3115C855.553 86.5458 853.126 88.3612 850.473 89.7577C847.82 91.1192 844.695 91.8 841.099 91.8C838.167 91.8 835.566 91.3112 833.297 90.3337C831.062 89.3213 829.177 87.9074 827.641 86.0919C826.105 84.2765 824.935 82.1295 824.132 79.6508C823.364 77.1371 822.98 74.3791 822.98 71.3767V37.2332H835.915V71.3767C835.915 74.6584 836.666 77.2069 838.167 79.0224C839.703 80.8028 841.99 81.6931 845.027 81.6931C847.261 81.6931 849.356 81.2043 851.311 80.2268C853.266 79.2144 855.116 77.8354 856.862 76.0898V37.2332H869.797Z" fill="#4C7741"/>
<path d="M810.617 13.1442V90.9621H797.682V13.1442H810.617Z" fill="#4C7741"/>
<path d="M761.159 36.3953C765.139 36.3953 768.752 37.0412 771.999 38.3329C775.281 39.6246 778.074 41.4575 780.378 43.8315C782.717 46.2055 784.515 49.1031 785.772 52.5245C787.029 55.9458 787.657 59.7686 787.657 63.9929C787.657 68.2521 787.029 72.0924 785.772 75.5138C784.515 78.9351 782.717 81.8502 780.378 84.2591C778.074 86.668 775.281 88.5183 771.999 89.8101C768.752 91.1018 765.139 91.7476 761.159 91.7476C757.144 91.7476 753.496 91.1018 750.214 89.8101C746.933 88.5183 744.122 86.668 741.783 84.2591C739.479 81.8502 737.681 78.9351 736.389 75.5138C735.132 72.0924 734.504 68.2521 734.504 63.9929C734.504 59.7686 735.132 55.9458 736.389 52.5245C737.681 49.1031 739.479 46.2055 741.783 43.8315C744.122 41.4575 746.933 39.6246 750.214 38.3329C753.496 37.0412 757.144 36.3953 761.159 36.3953ZM761.159 81.7978C765.628 81.7978 768.927 80.2966 771.057 77.2942C773.221 74.2919 774.303 69.893 774.303 64.0977C774.303 58.3023 773.221 53.886 771.057 50.8487C768.927 47.8114 765.628 46.2928 761.159 46.2928C756.621 46.2928 753.252 47.8289 751.052 50.9011C748.888 53.9384 747.805 58.3373 747.805 64.0977C747.805 69.8581 748.888 74.2569 751.052 77.2942C753.252 80.2966 756.621 81.7978 761.159 81.7978Z" fill="#4C7741"/>
<path d="M726.269 48.5969C725.884 49.0857 725.5 49.4697 725.116 49.749C724.767 50.0283 724.244 50.1679 723.545 50.1679C722.882 50.1679 722.236 49.9759 721.608 49.5919C720.979 49.173 720.229 48.7191 719.356 48.2304C718.483 47.7067 717.436 47.2528 716.214 46.8688C715.027 46.4499 713.543 46.2404 711.763 46.2404C709.493 46.2404 707.504 46.6593 705.793 47.4972C704.082 48.3002 702.651 49.4697 701.499 51.0058C700.382 52.5419 699.544 54.4097 698.985 56.6091C698.427 58.7737 698.147 61.2349 698.147 63.9929C698.147 66.8557 698.444 69.4042 699.037 71.6386C699.666 73.8729 700.556 75.7581 701.708 77.2942C702.86 78.7954 704.257 79.9475 705.898 80.7505C707.538 81.5185 709.389 81.9026 711.449 81.9026C713.508 81.9026 715.167 81.6582 716.423 81.1694C717.715 80.6458 718.797 80.0872 719.67 79.4937C720.543 78.8653 721.294 78.3067 721.922 77.8179C722.585 77.2942 723.318 77.0324 724.121 77.0324C725.169 77.0324 725.954 77.4339 726.478 78.2369L730.196 82.9499C728.765 84.6257 727.211 86.0396 725.535 87.1917C723.86 88.3088 722.114 89.2166 720.299 89.9148C718.518 90.5781 716.668 91.0494 714.748 91.3287C712.862 91.608 710.977 91.7476 709.092 91.7476C705.775 91.7476 702.651 91.1367 699.718 89.9148C696.786 88.658 694.22 86.8426 692.02 84.4686C689.821 82.0946 688.075 79.1969 686.784 75.7756C685.527 72.3193 684.898 68.3918 684.898 63.9929C684.898 60.0479 685.457 56.3997 686.574 53.0481C687.726 49.6617 689.402 46.7466 691.601 44.3028C693.801 41.8241 696.524 39.8865 699.771 38.49C703.017 37.0936 706.753 36.3953 710.977 36.3953C714.992 36.3953 718.501 37.0412 721.503 38.3329C724.54 39.6246 727.264 41.475 729.672 43.8839L726.269 48.5969Z" fill="#4C7741"/>
<path d="M645.967 26.4455V47.4448H672.465V58.2848H645.967V79.7031H679.587V90.9621H631.828V15.2389H679.587V26.4455H645.967Z" fill="#4C7741"/>
<path d="M557.297 43.8315C558.379 42.7492 559.514 41.7543 560.701 40.8466C561.923 39.9039 563.197 39.1184 564.524 38.49C565.885 37.8267 567.334 37.3205 568.87 36.9714C570.406 36.5873 572.082 36.3953 573.898 36.3953C576.83 36.3953 579.431 36.9015 581.7 37.914C583.97 38.8915 585.855 40.288 587.356 42.1034C588.892 43.8839 590.044 46.0309 590.812 48.5446C591.615 51.0233 592.017 53.7638 592.017 56.7662V90.9621H579.082V56.7662C579.082 53.4845 578.331 50.9535 576.83 49.173C575.329 47.3576 573.042 46.4499 569.97 46.4499C567.736 46.4499 565.641 46.9561 563.686 47.9685C561.731 48.981 559.881 50.36 558.135 52.1055V90.9621H545.2V37.2332H553.108C554.783 37.2332 555.883 38.0187 556.407 39.5897L557.297 43.8315Z" fill="#4C7741"/>
<path d="M523.868 57.9183C523.868 56.2426 523.623 54.6715 523.134 53.2053C522.681 51.7041 521.982 50.3949 521.04 49.2777C520.097 48.1605 518.893 47.2877 517.426 46.6593C515.995 45.996 514.319 45.6643 512.399 45.6643C508.664 45.6643 505.714 46.7292 503.549 48.8588C501.419 50.9884 500.058 54.0082 499.464 57.9183H523.868ZM499.203 65.7211C499.412 68.4791 499.901 70.8705 500.669 72.8954C501.437 74.8853 502.449 76.5436 503.706 77.8703C504.963 79.162 506.447 80.1395 508.157 80.8029C509.903 81.4313 511.823 81.7455 513.918 81.7455C516.012 81.7455 517.81 81.5011 519.312 81.0123C520.848 80.5236 522.174 79.9824 523.292 79.3889C524.444 78.7954 525.439 78.2543 526.277 77.7656C527.149 77.2768 527.987 77.0324 528.79 77.0324C529.872 77.0324 530.675 77.4339 531.199 78.2369L534.917 82.9499C533.486 84.6257 531.88 86.0396 530.099 87.1917C528.319 88.3088 526.451 89.2166 524.496 89.9148C522.576 90.5781 520.603 91.0494 518.579 91.3287C516.589 91.608 514.651 91.7476 512.766 91.7476C509.03 91.7476 505.556 91.1367 502.345 89.9148C499.133 88.658 496.34 86.8251 493.966 84.4162C491.592 81.9724 489.724 78.97 488.363 75.409C487.001 71.8131 486.32 67.6587 486.32 62.9456C486.32 59.2799 486.914 55.8411 488.101 52.6292C489.288 49.3824 490.981 46.5721 493.18 44.1981C495.415 41.7892 498.12 39.8865 501.297 38.49C504.509 37.0936 508.122 36.3953 512.137 36.3953C515.524 36.3953 518.648 36.9365 521.511 38.0187C524.374 39.101 526.835 40.6895 528.895 42.7841C530.955 44.8439 532.561 47.3925 533.713 50.4298C534.9 53.4322 535.493 56.871 535.493 60.7462C535.493 62.7012 535.284 64.0278 534.865 64.7261C534.446 65.3894 533.643 65.7211 532.456 65.7211H499.203Z" fill="#4C7741"/>
<path d="M467.921 57.9183C467.921 56.2426 467.676 54.6715 467.188 53.2053C466.734 51.7041 466.036 50.3949 465.093 49.2777C464.15 48.1605 462.946 47.2877 461.48 46.6593C460.048 45.996 458.372 45.6643 456.452 45.6643C452.717 45.6643 449.767 46.7292 447.602 48.8588C445.473 50.9884 444.111 54.0082 443.518 57.9183H467.921ZM443.256 65.7211C443.465 68.4791 443.954 70.8705 444.722 72.8954C445.49 74.8853 446.502 76.5436 447.759 77.8703C449.016 79.162 450.5 80.1395 452.211 80.8029C453.956 81.4313 455.876 81.7455 457.971 81.7455C460.066 81.7455 461.864 81.5011 463.365 81.0123C464.901 80.5236 466.228 79.9824 467.345 79.3889C468.497 78.7954 469.492 78.2543 470.33 77.7656C471.202 77.2768 472.04 77.0324 472.843 77.0324C473.926 77.0324 474.729 77.4339 475.252 78.2369L478.97 82.9499C477.539 84.6257 475.933 86.0396 474.152 87.1917C472.372 88.3088 470.504 89.2166 468.549 89.9148C466.629 90.5781 464.657 91.0494 462.632 91.3287C460.642 91.608 458.704 91.7476 456.819 91.7476C453.083 91.7476 449.61 91.1367 446.398 89.9148C443.186 88.658 440.393 86.8251 438.019 84.4162C435.645 81.9724 433.777 78.97 432.416 75.409C431.054 71.8131 430.373 67.6587 430.373 62.9456C430.373 59.2799 430.967 55.8411 432.154 52.6292C433.341 49.3824 435.034 46.5721 437.233 44.1981C439.468 41.7892 442.173 39.8865 445.35 38.49C448.562 37.0936 452.176 36.3953 456.19 36.3953C459.577 36.3953 462.701 36.9365 465.564 38.0187C468.427 39.101 470.888 40.6895 472.948 42.7841C475.008 44.8439 476.614 47.3925 477.766 50.4298C478.953 53.4322 479.546 56.871 479.546 60.7462C479.546 62.7012 479.337 64.0278 478.918 64.7261C478.499 65.3894 477.696 65.7211 476.509 65.7211H443.256Z" fill="#4C7741"/>
<path d="M407.971 46.5546C409.646 43.3428 411.636 40.8291 413.941 39.0137C416.245 37.1634 418.968 36.2383 422.11 36.2383C424.589 36.2383 426.579 36.7794 428.08 37.8616L427.242 47.5496C427.067 48.178 426.805 48.6319 426.456 48.9112C426.142 49.1555 425.706 49.2777 425.147 49.2777C424.624 49.2777 423.838 49.1904 422.791 49.0159C421.778 48.8413 420.783 48.7541 419.806 48.7541C418.374 48.7541 417.1 48.9635 415.983 49.3825C414.866 49.8014 413.853 50.4124 412.946 51.2153C412.073 51.9834 411.287 52.926 410.589 54.0432C409.926 55.1603 409.297 56.4346 408.704 57.866V90.9622H395.769V37.2332H403.362C404.689 37.2332 405.614 37.4776 406.138 37.9664C406.661 38.4202 407.011 39.2581 407.185 40.48L407.971 46.5546Z" fill="#4C7741"/>
<path d="M385.057 52.9958V83.6307C381.217 86.4585 377.115 88.5358 372.751 89.8624C368.422 91.1542 363.779 91.8 358.821 91.8C352.642 91.8 347.039 90.84 342.011 88.9198C337.019 86.9997 332.742 84.3289 329.181 80.9076C325.655 77.4863 322.932 73.4016 321.012 68.6536C319.092 63.9057 318.132 58.7213 318.132 53.1005C318.132 47.4099 319.057 42.1907 320.907 37.4427C322.758 32.6947 325.376 28.61 328.763 25.1887C332.184 21.7674 336.321 19.1141 341.174 17.2289C346.026 15.3436 351.472 14.401 357.512 14.401C360.584 14.401 363.447 14.6454 366.1 15.1342C368.789 15.6229 371.267 16.3037 373.537 17.1765C375.841 18.0144 377.935 19.0443 379.821 20.2662C381.706 21.4881 383.434 22.8322 385.005 24.2985L380.973 30.6873C380.344 31.6997 379.524 32.3281 378.512 32.5725C377.499 32.782 376.399 32.5201 375.212 31.787C374.06 31.1237 372.908 30.4604 371.756 29.797C370.604 29.1337 369.312 28.5577 367.881 28.0689C366.484 27.5802 364.896 27.1787 363.116 26.8645C361.37 26.5503 359.345 26.3932 357.041 26.3932C353.305 26.3932 349.919 27.0216 346.882 28.2784C343.879 29.5352 341.313 31.3331 339.184 33.6722C337.054 36.0113 335.413 38.8217 334.261 42.1034C333.109 45.3851 332.533 49.0508 332.533 53.1005C332.533 57.4296 333.144 61.3047 334.366 64.7261C335.623 68.1125 337.368 70.9927 339.603 73.3667C341.872 75.7058 344.595 77.5037 347.772 78.7605C350.949 79.9825 354.492 80.5934 358.402 80.5934C361.195 80.5934 363.692 80.2967 365.891 79.7032C368.09 79.1097 370.237 78.3067 372.332 77.2943V63.574H362.801C361.894 63.574 361.178 63.3296 360.654 62.8409C360.165 62.3172 359.921 61.6888 359.921 60.9556V52.9958H385.057Z" fill="#4C7741"/>
<path d="M1214.25 187.458C1211.81 187.458 1209.92 186.776 1208.6 185.411C1207.3 184.047 1206.64 182.081 1206.64 179.515V160.576H1202.92C1202.59 160.576 1202.32 160.484 1202.09 160.301C1201.87 160.097 1201.76 159.792 1201.76 159.384V157.216L1206.83 156.574L1208.08 147.013C1208.14 146.707 1208.27 146.463 1208.48 146.28C1208.7 146.076 1208.99 145.974 1209.33 145.974H1212.08V156.635H1221.03V160.576H1212.08V179.149C1212.08 180.452 1212.4 181.42 1213.03 182.051C1213.66 182.682 1214.48 182.998 1215.47 182.998C1216.04 182.998 1216.53 182.927 1216.94 182.784C1217.37 182.621 1217.73 182.448 1218.04 182.265C1218.34 182.081 1218.6 181.918 1218.8 181.776C1219.03 181.613 1219.22 181.532 1219.38 181.532C1219.67 181.532 1219.92 181.705 1220.15 182.051L1221.74 184.647C1220.8 185.523 1219.67 186.215 1218.34 186.725C1217.02 187.213 1215.66 187.458 1214.25 187.458Z" fill="#659858"/>
<path d="M1176.23 160.515C1176.91 159.761 1177.62 159.079 1178.37 158.468C1179.12 157.857 1179.92 157.338 1180.75 156.91C1181.61 156.462 1182.51 156.126 1183.44 155.902C1184.4 155.658 1185.43 155.535 1186.53 155.535C1188.22 155.535 1189.7 155.821 1190.99 156.391C1192.29 156.941 1193.37 157.735 1194.23 158.774C1195.1 159.792 1195.76 161.024 1196.21 162.47C1196.66 163.916 1196.88 165.514 1196.88 167.266V186.969H1191.42V167.266C1191.42 164.924 1190.88 163.111 1189.8 161.828C1188.74 160.525 1187.12 159.873 1184.94 159.873C1183.33 159.873 1181.82 160.26 1180.42 161.034C1179.03 161.808 1177.75 162.857 1176.57 164.18V186.969H1171.1V156.024H1174.37C1175.14 156.024 1175.62 156.401 1175.81 157.155L1176.23 160.515Z" fill="#659858"/>
<path d="M1159.53 168.121C1159.53 166.858 1159.35 165.708 1158.98 164.669C1158.64 163.61 1158.12 162.704 1157.43 161.95C1156.75 161.177 1155.93 160.586 1154.95 160.179C1153.97 159.751 1152.86 159.537 1151.62 159.537C1149.02 159.537 1146.95 160.301 1145.42 161.828C1143.91 163.335 1142.98 165.433 1142.61 168.121H1159.53ZM1163.93 182.631C1163.26 183.446 1162.46 184.159 1161.52 184.77C1160.58 185.36 1159.58 185.849 1158.5 186.236C1157.44 186.623 1156.34 186.908 1155.2 187.091C1154.06 187.295 1152.93 187.397 1151.81 187.397C1149.67 187.397 1147.69 187.04 1145.88 186.328C1144.09 185.594 1142.53 184.535 1141.21 183.151C1139.9 181.745 1138.88 180.014 1138.15 177.957C1137.42 175.901 1137.05 173.538 1137.05 170.87C1137.05 168.712 1137.38 166.696 1138.03 164.822C1138.7 162.948 1139.66 161.329 1140.9 159.965C1142.14 158.58 1143.66 157.501 1145.45 156.727C1147.24 155.933 1149.26 155.535 1151.5 155.535C1153.35 155.535 1155.06 155.851 1156.63 156.482C1158.22 157.093 1159.59 157.989 1160.73 159.171C1161.89 160.331 1162.79 161.777 1163.44 163.508C1164.1 165.219 1164.42 167.174 1164.42 169.374C1164.42 170.229 1164.33 170.799 1164.15 171.084C1163.96 171.369 1163.62 171.512 1163.11 171.512H1142.43C1142.49 173.467 1142.75 175.167 1143.22 176.613C1143.71 178.059 1144.38 179.271 1145.24 180.249C1146.09 181.206 1147.11 181.929 1148.29 182.417C1149.47 182.886 1150.8 183.12 1152.26 183.12C1153.63 183.12 1154.8 182.967 1155.78 182.662C1156.77 182.336 1157.63 181.99 1158.34 181.623C1159.06 181.257 1159.65 180.921 1160.11 180.615C1160.6 180.289 1161.02 180.126 1161.37 180.126C1161.82 180.126 1162.16 180.299 1162.41 180.646L1163.93 182.631Z" fill="#659858"/>
<path d="M1088.59 186.969V156.024H1091.86C1092.63 156.024 1093.11 156.401 1093.29 157.155L1093.69 160.331C1094.83 158.926 1096.11 157.776 1097.54 156.88C1098.96 155.984 1100.61 155.535 1102.49 155.535C1104.56 155.535 1106.24 156.116 1107.53 157.277C1108.83 158.438 1109.77 160.006 1110.34 161.981C1110.78 160.861 1111.35 159.894 1112.05 159.079C1112.76 158.264 1113.55 157.592 1114.43 157.063C1115.31 156.533 1116.23 156.146 1117.21 155.902C1118.21 155.658 1119.22 155.535 1120.23 155.535C1121.86 155.535 1123.31 155.8 1124.57 156.33C1125.85 156.839 1126.93 157.592 1127.81 158.59C1128.71 159.588 1129.39 160.82 1129.86 162.287C1130.32 163.732 1130.56 165.392 1130.56 167.266V186.969H1125.09V167.266C1125.09 164.842 1124.56 163.009 1123.5 161.767C1122.44 160.505 1120.92 159.873 1118.92 159.873C1118.02 159.873 1117.17 160.036 1116.35 160.362C1115.56 160.667 1114.86 161.126 1114.25 161.737C1113.64 162.348 1113.15 163.121 1112.78 164.058C1112.43 164.975 1112.26 166.044 1112.26 167.266V186.969H1106.79V167.266C1106.79 164.781 1106.29 162.928 1105.3 161.706C1104.3 160.484 1102.84 159.873 1100.93 159.873C1099.58 159.873 1098.34 160.24 1097.2 160.973C1096.06 161.686 1095.01 162.663 1094.05 163.906V186.969H1088.59Z" fill="#659858"/>
<path d="M1077.02 168.121C1077.02 166.858 1076.84 165.708 1076.47 164.669C1076.12 163.61 1075.6 162.704 1074.91 161.95C1074.24 161.177 1073.42 160.586 1072.44 160.179C1071.46 159.751 1070.35 159.537 1069.11 159.537C1066.5 159.537 1064.43 160.301 1062.91 161.828C1061.4 163.335 1060.46 165.433 1060.1 168.121H1077.02ZM1081.42 182.631C1080.75 183.446 1079.94 184.159 1079.01 184.77C1078.07 185.36 1077.06 185.849 1075.98 186.236C1074.92 186.623 1073.82 186.908 1072.68 187.091C1071.54 187.295 1070.41 187.397 1069.29 187.397C1067.15 187.397 1065.18 187.04 1063.37 186.328C1061.57 185.594 1060.02 184.535 1058.69 183.151C1057.39 181.745 1056.37 180.014 1055.64 177.957C1054.9 175.901 1054.54 173.538 1054.54 170.87C1054.54 168.712 1054.86 166.696 1055.51 164.822C1056.19 162.948 1057.14 161.329 1058.39 159.965C1059.63 158.58 1061.15 157.501 1062.94 156.727C1064.73 155.933 1066.75 155.535 1068.99 155.535C1070.84 155.535 1072.55 155.851 1074.12 156.482C1075.71 157.093 1077.07 157.989 1078.21 159.171C1079.37 160.331 1080.28 161.777 1080.93 163.508C1081.58 165.219 1081.91 167.174 1081.91 169.374C1081.91 170.229 1081.82 170.799 1081.63 171.084C1081.45 171.369 1081.1 171.512 1080.59 171.512H1059.91C1059.97 173.467 1060.24 175.167 1060.71 176.613C1061.2 178.059 1061.87 179.271 1062.72 180.249C1063.58 181.206 1064.6 181.929 1065.78 182.417C1066.96 182.886 1068.28 183.12 1069.75 183.12C1071.11 183.12 1072.29 182.967 1073.26 182.662C1074.26 182.336 1075.12 181.99 1075.83 181.623C1076.54 181.257 1077.13 180.921 1077.6 180.615C1078.09 180.289 1078.51 180.126 1078.85 180.126C1079.3 180.126 1079.65 180.299 1079.89 180.646L1081.42 182.631Z" fill="#659858"/>
<path d="M1035.83 171.848C1036.93 171.848 1037.9 171.695 1038.73 171.39C1039.57 171.084 1040.27 170.657 1040.84 170.107C1041.41 169.557 1041.84 168.905 1042.12 168.152C1042.41 167.378 1042.55 166.533 1042.55 165.616C1042.55 163.722 1041.97 162.215 1040.81 161.095C1039.67 159.975 1038.01 159.415 1035.83 159.415C1033.63 159.415 1031.95 159.975 1030.79 161.095C1029.65 162.215 1029.08 163.722 1029.08 165.616C1029.08 166.533 1029.22 167.378 1029.5 168.152C1029.81 168.905 1030.25 169.557 1030.82 170.107C1031.39 170.657 1032.09 171.084 1032.93 171.39C1033.76 171.695 1034.73 171.848 1035.83 171.848ZM1045.63 188.649C1045.63 187.896 1045.42 187.285 1044.99 186.816C1044.56 186.348 1043.98 185.981 1043.25 185.717C1042.54 185.452 1041.7 185.268 1040.75 185.167C1039.79 185.044 1038.77 184.953 1037.69 184.892C1036.63 184.831 1035.55 184.77 1034.45 184.708C1033.35 184.647 1032.29 184.546 1031.28 184.403C1030.14 184.932 1029.2 185.605 1028.47 186.419C1027.75 187.213 1027.4 188.15 1027.4 189.23C1027.4 189.922 1027.57 190.563 1027.92 191.154C1028.28 191.765 1028.83 192.284 1029.57 192.712C1030.3 193.16 1031.22 193.506 1032.32 193.751C1033.44 194.015 1034.75 194.148 1036.26 194.148C1037.72 194.148 1039.04 194.015 1040.2 193.751C1041.36 193.486 1042.33 193.109 1043.13 192.62C1043.94 192.132 1044.56 191.551 1044.99 190.879C1045.42 190.207 1045.63 189.464 1045.63 188.649ZM1051.16 157.246V159.262C1051.16 159.934 1050.74 160.362 1049.88 160.545L1046.37 161.003C1047.06 162.348 1047.41 163.834 1047.41 165.463C1047.41 166.97 1047.11 168.345 1046.52 169.587C1045.95 170.809 1045.16 171.858 1044.14 172.734C1043.12 173.609 1041.9 174.282 1040.47 174.75C1039.05 175.218 1037.5 175.453 1035.83 175.453C1034.38 175.453 1033.02 175.279 1031.73 174.933C1031.08 175.341 1030.58 175.778 1030.24 176.247C1029.89 176.695 1029.72 177.153 1029.72 177.621C1029.72 178.355 1030.01 178.915 1030.6 179.302C1031.22 179.668 1032.01 179.933 1032.99 180.096C1033.96 180.259 1035.07 180.361 1036.32 180.401C1037.58 180.442 1038.86 180.513 1040.17 180.615C1041.49 180.697 1042.77 180.849 1044.01 181.073C1045.28 181.297 1046.4 181.664 1047.38 182.173C1048.35 182.682 1049.14 183.385 1049.73 184.281C1050.34 185.177 1050.64 186.338 1050.64 187.763C1050.64 189.087 1050.31 190.37 1049.64 191.612C1048.98 192.854 1048.04 193.954 1046.79 194.911C1045.55 195.889 1044.03 196.663 1042.21 197.233C1040.42 197.824 1038.39 198.119 1036.13 198.119C1033.87 198.119 1031.9 197.895 1030.21 197.447C1028.52 196.999 1027.11 196.398 1025.99 195.645C1024.87 194.891 1024.03 194.015 1023.46 193.017C1022.91 192.04 1022.63 191.011 1022.63 189.932C1022.63 188.405 1023.11 187.112 1024.07 186.053C1025.02 184.994 1026.34 184.148 1028.01 183.517C1027.09 183.11 1026.36 182.57 1025.81 181.898C1025.28 181.206 1025.01 180.279 1025.01 179.118C1025.01 178.67 1025.1 178.212 1025.26 177.744C1025.42 177.255 1025.67 176.776 1025.99 176.308C1026.34 175.819 1026.76 175.361 1027.24 174.933C1027.73 174.506 1028.3 174.129 1028.95 173.803C1027.43 172.948 1026.24 171.817 1025.38 170.412C1024.53 168.987 1024.1 167.337 1024.1 165.463C1024.1 163.956 1024.38 162.592 1024.95 161.37C1025.54 160.128 1026.36 159.079 1027.4 158.224C1028.44 157.348 1029.67 156.676 1031.09 156.208C1032.54 155.739 1034.12 155.505 1035.83 155.505C1037.17 155.505 1038.42 155.658 1039.59 155.963C1040.75 156.248 1041.81 156.676 1042.76 157.246H1051.16Z" fill="#659858"/>
<path d="M1011.45 173.039C1008.94 173.121 1006.8 173.324 1005.03 173.65C1003.28 173.956 1001.84 174.363 1000.72 174.872C999.625 175.381 998.821 175.982 998.311 176.674C997.823 177.367 997.578 178.141 997.578 178.996C997.578 179.811 997.711 180.513 997.975 181.104C998.24 181.694 998.597 182.183 999.045 182.57C999.513 182.937 1000.05 183.212 1000.66 183.395C1001.29 183.558 1001.97 183.639 1002.68 183.639C1003.64 183.639 1004.51 183.548 1005.31 183.364C1006.1 183.161 1006.84 182.876 1007.54 182.509C1008.25 182.143 1008.92 181.705 1009.55 181.196C1010.2 180.686 1010.84 180.106 1011.45 179.454V173.039ZM993.882 160.393C995.593 158.743 997.436 157.511 999.411 156.696C1001.39 155.882 1003.58 155.474 1005.98 155.474C1007.71 155.474 1009.25 155.76 1010.59 156.33C1011.94 156.9 1013.07 157.694 1013.98 158.712C1014.9 159.731 1015.59 160.963 1016.06 162.409C1016.53 163.855 1016.76 165.443 1016.76 167.174V186.969H1014.35C1013.82 186.969 1013.41 186.888 1013.13 186.725C1012.84 186.541 1012.62 186.195 1012.45 185.686L1011.84 182.753C1011.03 183.507 1010.24 184.179 1009.46 184.77C1008.69 185.34 1007.87 185.829 1007.02 186.236C1006.16 186.623 1005.25 186.918 1004.27 187.122C1003.31 187.346 1002.24 187.458 1001.06 187.458C999.859 187.458 998.729 187.295 997.67 186.969C996.611 186.623 995.684 186.114 994.89 185.442C994.116 184.77 993.495 183.924 993.027 182.906C992.579 181.868 992.355 180.646 992.355 179.24C992.355 178.019 992.691 176.848 993.363 175.728C994.035 174.587 995.124 173.579 996.631 172.703C998.138 171.828 1000.1 171.115 1002.53 170.565C1004.95 169.995 1007.92 169.669 1011.45 169.587V167.174C1011.45 164.771 1010.93 162.959 1009.89 161.737C1008.85 160.494 1007.33 159.873 1005.34 159.873C1003.99 159.873 1002.86 160.046 1001.95 160.393C1001.05 160.718 1000.27 161.095 999.594 161.523C998.943 161.93 998.372 162.307 997.884 162.653C997.415 162.979 996.947 163.142 996.479 163.142C996.112 163.142 995.796 163.05 995.532 162.867C995.267 162.663 995.043 162.419 994.86 162.134L993.882 160.393Z" fill="#659858"/>
<path d="M965.741 160.515C966.413 159.761 967.126 159.079 967.879 158.468C968.633 157.857 969.427 157.338 970.262 156.91C971.117 156.462 972.013 156.126 972.95 155.902C973.907 155.658 974.936 155.535 976.035 155.535C977.726 155.535 979.212 155.821 980.495 156.391C981.799 156.941 982.878 157.735 983.733 158.774C984.609 159.792 985.271 161.024 985.719 162.47C986.167 163.916 986.391 165.514 986.391 167.266V186.969H980.923V167.266C980.923 164.924 980.383 163.111 979.304 161.828C978.245 160.525 976.626 159.873 974.447 159.873C972.838 159.873 971.331 160.26 969.926 161.034C968.541 161.808 967.258 162.857 966.077 164.18V186.969H960.609V156.024H963.877C964.651 156.024 965.13 156.401 965.313 157.155L965.741 160.515Z" fill="#659858"/>
<path d="M947.01 173.039C944.506 173.121 942.367 173.324 940.595 173.65C938.844 173.956 937.408 174.363 936.288 174.872C935.189 175.381 934.384 175.982 933.875 176.674C933.386 177.367 933.142 178.141 933.142 178.996C933.142 179.811 933.274 180.513 933.539 181.104C933.804 181.694 934.16 182.183 934.608 182.57C935.077 182.937 935.616 183.212 936.227 183.395C936.858 183.558 937.531 183.639 938.243 183.639C939.2 183.639 940.076 183.548 940.87 183.364C941.665 183.161 942.408 182.876 943.1 182.509C943.813 182.143 944.485 181.705 945.117 181.196C945.768 180.686 946.4 180.106 947.01 179.454V173.039ZM929.446 160.393C931.156 158.743 932.999 157.511 934.975 156.696C936.95 155.882 939.139 155.474 941.542 155.474C943.273 155.474 944.811 155.76 946.155 156.33C947.499 156.9 948.629 157.694 949.546 158.712C950.462 159.731 951.155 160.963 951.623 162.409C952.092 163.855 952.326 165.443 952.326 167.174V186.969H949.912C949.383 186.969 948.976 186.888 948.691 186.725C948.405 186.541 948.181 186.195 948.019 185.686L947.408 182.753C946.593 183.507 945.799 184.179 945.025 184.77C944.251 185.34 943.436 185.829 942.581 186.236C941.726 186.623 940.809 186.918 939.832 187.122C938.875 187.346 937.805 187.458 936.624 187.458C935.423 187.458 934.292 187.295 933.234 186.969C932.175 186.623 931.248 186.114 930.454 185.442C929.68 184.77 929.059 183.924 928.59 182.906C928.142 181.868 927.918 180.646 927.918 179.24C927.918 178.019 928.254 176.848 928.926 175.728C929.598 174.587 930.688 173.579 932.195 172.703C933.702 171.828 935.667 171.115 938.091 170.565C940.514 169.995 943.487 169.669 947.01 169.587V167.174C947.01 164.771 946.491 162.959 945.453 161.737C944.414 160.494 942.897 159.873 940.901 159.873C939.557 159.873 938.427 160.046 937.51 160.393C936.614 160.718 935.83 161.095 935.158 161.523C934.506 161.93 933.936 162.307 933.447 162.653C932.979 162.979 932.511 163.142 932.042 163.142C931.676 163.142 931.36 163.05 931.095 162.867C930.83 162.663 930.606 162.419 930.423 162.134L929.446 160.393Z" fill="#659858"/>
<path d="M880.003 186.969V156.024H883.272C884.046 156.024 884.525 156.401 884.708 157.155L885.105 160.331C886.245 158.926 887.528 157.776 888.954 156.88C890.379 155.984 892.029 155.535 893.903 155.535C895.98 155.535 897.66 156.116 898.943 157.277C900.246 158.438 901.183 160.006 901.753 161.981C902.201 160.861 902.772 159.894 903.464 159.079C904.177 158.264 904.971 157.592 905.847 157.063C906.722 156.533 907.649 156.146 908.627 155.902C909.625 155.658 910.633 155.535 911.651 155.535C913.28 155.535 914.726 155.8 915.989 156.33C917.272 156.839 918.351 157.592 919.227 158.59C920.123 159.588 920.805 160.82 921.273 162.287C921.742 163.732 921.976 165.392 921.976 167.266V186.969H916.508V167.266C916.508 164.842 915.978 163.009 914.919 161.767C913.86 160.505 912.333 159.873 910.337 159.873C909.441 159.873 908.586 160.036 907.771 160.362C906.977 160.667 906.274 161.126 905.664 161.737C905.053 162.348 904.564 163.121 904.197 164.058C903.851 164.975 903.678 166.044 903.678 167.266V186.969H898.21V167.266C898.21 164.781 897.711 162.928 896.713 161.706C895.715 160.484 894.259 159.873 892.345 159.873C891.001 159.873 889.758 160.24 888.618 160.973C887.477 161.686 886.429 162.663 885.472 163.906V186.969H880.003Z" fill="#659858"/>
<path d="M851.068 160.515C851.74 159.761 852.453 159.079 853.206 158.468C853.96 157.857 854.754 157.338 855.589 156.91C856.444 156.462 857.34 156.126 858.277 155.902C859.234 155.658 860.263 155.535 861.362 155.535C863.053 155.535 864.539 155.821 865.822 156.391C867.126 156.941 868.205 157.735 869.06 158.774C869.936 159.792 870.598 161.024 871.046 162.47C871.494 163.916 871.718 165.514 871.718 167.266V186.969H866.25V167.266C866.25 164.924 865.71 163.111 864.631 161.828C863.572 160.525 861.953 159.873 859.774 159.873C858.165 159.873 856.658 160.26 855.253 161.034C853.868 161.808 852.585 162.857 851.404 164.18V186.969H845.936V156.024H849.204C849.978 156.024 850.457 156.401 850.64 157.155L851.068 160.515Z" fill="#659858"/>
<path d="M834.369 168.121C834.369 166.858 834.186 165.708 833.819 164.669C833.473 163.61 832.954 162.704 832.261 161.95C831.589 161.177 830.765 160.586 829.787 160.179C828.809 159.751 827.7 159.537 826.457 159.537C823.851 159.537 821.784 160.301 820.256 161.828C818.749 163.335 817.812 165.433 817.446 168.121H834.369ZM838.768 182.631C838.096 183.446 837.292 184.159 836.355 184.77C835.418 185.36 834.41 185.849 833.331 186.236C832.272 186.623 831.172 186.908 830.031 187.091C828.891 187.295 827.761 187.397 826.641 187.397C824.502 187.397 822.527 187.04 820.714 186.328C818.922 185.594 817.364 184.535 816.041 183.151C814.737 181.745 813.719 180.014 812.986 177.957C812.253 175.901 811.886 173.538 811.886 170.87C811.886 168.712 812.212 166.696 812.864 164.822C813.536 162.948 814.493 161.329 815.735 159.965C816.977 158.58 818.495 157.501 820.287 156.727C822.079 155.933 824.095 155.535 826.335 155.535C828.188 155.535 829.899 155.851 831.467 156.482C833.056 157.093 834.42 157.989 835.56 159.171C836.721 160.331 837.628 161.777 838.279 163.508C838.931 165.219 839.257 167.174 839.257 169.374C839.257 170.229 839.165 170.799 838.982 171.084C838.799 171.369 838.452 171.512 837.943 171.512H817.262C817.324 173.467 817.588 175.167 818.057 176.613C818.545 178.059 819.218 179.271 820.073 180.249C820.928 181.206 821.946 181.929 823.128 182.417C824.309 182.886 825.633 183.12 827.099 183.12C828.463 183.12 829.634 182.967 830.612 182.662C831.61 182.336 832.465 181.99 833.178 181.623C833.891 181.257 834.481 180.921 834.95 180.615C835.438 180.289 835.856 180.126 836.202 180.126C836.65 180.126 836.996 180.299 837.241 180.646L838.768 182.631Z" fill="#659858"/>
<path d="M785.058 160.148C786.382 158.743 787.848 157.623 789.457 156.788C791.066 155.953 792.919 155.535 795.017 155.535C796.707 155.535 798.194 155.821 799.477 156.391C800.78 156.941 801.859 157.735 802.715 158.774C803.59 159.792 804.252 161.024 804.7 162.47C805.148 163.916 805.372 165.514 805.372 167.266V186.969H799.904V167.266C799.904 164.924 799.365 163.111 798.285 161.828C797.226 160.525 795.607 159.873 793.428 159.873C791.819 159.873 790.312 160.26 788.907 161.034C787.522 161.808 786.239 162.857 785.058 164.18V186.969H779.59V141.972H785.058V160.148Z" fill="#659858"/>
<path d="M771.951 161.523C771.788 161.747 771.625 161.92 771.462 162.042C771.299 162.164 771.075 162.225 770.79 162.225C770.484 162.225 770.148 162.103 769.782 161.859C769.415 161.594 768.957 161.309 768.407 161.004C767.878 160.698 767.216 160.423 766.421 160.179C765.648 159.914 764.69 159.782 763.55 159.782C762.023 159.782 760.679 160.057 759.518 160.606C758.357 161.136 757.379 161.91 756.585 162.928C755.811 163.946 755.221 165.178 754.813 166.624C754.426 168.07 754.233 169.689 754.233 171.481C754.233 173.355 754.447 175.025 754.874 176.491C755.302 177.937 755.903 179.159 756.677 180.157C757.471 181.134 758.418 181.888 759.518 182.417C760.638 182.927 761.89 183.181 763.275 183.181C764.599 183.181 765.688 183.028 766.544 182.723C767.399 182.397 768.102 182.041 768.651 181.654C769.222 181.267 769.69 180.921 770.057 180.615C770.444 180.289 770.82 180.126 771.187 180.126C771.635 180.126 771.981 180.299 772.226 180.646L773.753 182.631C773.081 183.466 772.317 184.179 771.462 184.77C770.606 185.36 769.68 185.859 768.682 186.266C767.704 186.653 766.676 186.938 765.597 187.122C764.517 187.305 763.418 187.397 762.298 187.397C760.363 187.397 758.561 187.04 756.891 186.328C755.241 185.615 753.805 184.586 752.583 183.242C751.361 181.878 750.404 180.208 749.712 178.232C749.019 176.257 748.673 174.007 748.673 171.481C748.673 169.18 748.989 167.052 749.62 165.097C750.272 163.142 751.209 161.462 752.431 160.057C753.673 158.631 755.19 157.521 756.982 156.727C758.795 155.933 760.872 155.535 763.214 155.535C765.393 155.535 767.307 155.892 768.957 156.605C770.627 157.297 772.103 158.285 773.386 159.568L771.951 161.523Z" fill="#659858"/>
<path d="M736.817 173.039C734.312 173.121 732.173 173.324 730.402 173.65C728.65 173.956 727.214 174.363 726.094 174.872C724.995 175.381 724.19 175.982 723.681 176.674C723.192 177.367 722.948 178.141 722.948 178.996C722.948 179.811 723.08 180.513 723.345 181.104C723.61 181.694 723.966 182.183 724.414 182.57C724.883 182.937 725.422 183.212 726.033 183.395C726.665 183.558 727.337 183.639 728.049 183.639C729.007 183.639 729.882 183.548 730.676 183.364C731.471 183.161 732.214 182.876 732.906 182.509C733.619 182.142 734.291 181.705 734.923 181.195C735.574 180.686 736.206 180.106 736.817 179.454V173.039ZM719.252 160.393C720.962 158.743 722.805 157.511 724.781 156.696C726.756 155.882 728.945 155.474 731.349 155.474C733.08 155.474 734.617 155.759 735.961 156.33C737.305 156.9 738.436 157.694 739.352 158.712C740.268 159.731 740.961 160.963 741.429 162.409C741.898 163.855 742.132 165.443 742.132 167.174V186.969H739.719C739.189 186.969 738.782 186.888 738.497 186.725C738.212 186.541 737.988 186.195 737.825 185.686L737.214 182.753C736.399 183.507 735.605 184.179 734.831 184.77C734.057 185.34 733.242 185.829 732.387 186.236C731.532 186.623 730.615 186.918 729.638 187.122C728.681 187.346 727.612 187.458 726.43 187.458C725.229 187.458 724.099 187.295 723.04 186.969C721.981 186.623 721.054 186.114 720.26 185.442C719.486 184.77 718.865 183.924 718.396 182.906C717.948 181.868 717.724 180.646 717.724 179.24C717.724 178.019 718.06 176.848 718.732 175.727C719.404 174.587 720.494 173.579 722.001 172.703C723.508 171.828 725.473 171.115 727.897 170.565C730.32 169.995 733.293 169.669 736.817 169.587V167.174C736.817 164.771 736.297 162.959 735.259 161.737C734.22 160.494 732.703 159.873 730.707 159.873C729.363 159.873 728.233 160.046 727.316 160.393C726.42 160.718 725.636 161.095 724.964 161.523C724.312 161.93 723.742 162.307 723.253 162.653C722.785 162.979 722.317 163.142 721.848 163.142C721.482 163.142 721.166 163.05 720.901 162.867C720.636 162.663 720.412 162.419 720.229 162.134L719.252 160.393ZM728.294 147.593C728.294 148.061 728.202 148.499 728.019 148.907C727.836 149.314 727.581 149.67 727.255 149.976C726.929 150.281 726.553 150.526 726.125 150.709C725.718 150.892 725.28 150.984 724.811 150.984C724.363 150.984 723.936 150.892 723.528 150.709C723.121 150.526 722.754 150.281 722.429 149.976C722.123 149.67 721.879 149.314 721.695 148.907C721.512 148.499 721.421 148.061 721.421 147.593C721.421 147.125 721.512 146.677 721.695 146.249C721.879 145.821 722.123 145.455 722.429 145.149C722.754 144.823 723.121 144.569 723.528 144.386C723.936 144.202 724.363 144.111 724.811 144.111C725.28 144.111 725.718 144.202 726.125 144.386C726.553 144.569 726.929 144.823 727.255 145.149C727.581 145.455 727.836 145.821 728.019 146.249C728.202 146.677 728.294 147.125 728.294 147.593ZM739.932 147.593C739.932 148.061 739.841 148.499 739.657 148.907C739.474 149.314 739.22 149.67 738.894 149.976C738.588 150.281 738.222 150.526 737.794 150.709C737.387 150.892 736.949 150.984 736.481 150.984C736.012 150.984 735.564 150.892 735.136 150.709C734.729 150.526 734.373 150.281 734.067 149.976C733.762 149.67 733.517 149.314 733.334 148.907C733.151 148.499 733.059 148.061 733.059 147.593C733.059 147.125 733.151 146.677 733.334 146.249C733.517 145.821 733.762 145.455 734.067 145.149C734.373 144.823 734.729 144.569 735.136 144.386C735.564 144.202 736.012 144.111 736.481 144.111C736.949 144.111 737.387 144.202 737.794 144.386C738.222 144.569 738.588 144.823 738.894 145.149C739.22 145.455 739.474 145.821 739.657 146.249C739.841 146.677 739.932 147.125 739.932 147.593Z" fill="#659858"/>
<path d="M686.086 186.969V160.667L682.665 160.27C682.217 160.169 681.861 160.016 681.596 159.812C681.331 159.588 681.199 159.272 681.199 158.865V156.635H686.086V154.986C686.086 153.275 686.341 151.656 686.85 150.129C687.38 148.581 688.174 147.237 689.233 146.096C690.292 144.956 691.616 144.05 693.204 143.378C694.793 142.705 696.646 142.369 698.764 142.369C700.332 142.369 701.839 142.431 703.285 142.553C704.751 142.675 706.166 142.746 707.531 142.767H711.227V186.969H705.82V146.585C704.721 146.544 703.611 146.493 702.491 146.432C701.391 146.371 700.424 146.341 699.589 146.341C696.941 146.341 694.905 147.104 693.479 148.632C692.074 150.139 691.371 152.257 691.371 154.986V156.635H699.405V160.576H691.524V186.969H686.086Z" fill="#659858"/>
<path d="M655.551 160.515C656.223 159.761 656.936 159.079 657.689 158.468C658.443 157.857 659.237 157.338 660.072 156.91C660.927 156.462 661.823 156.126 662.76 155.902C663.717 155.658 664.746 155.535 665.845 155.535C667.536 155.535 669.022 155.821 670.305 156.391C671.609 156.941 672.688 157.735 673.543 158.774C674.419 159.792 675.081 161.024 675.529 162.47C675.977 163.916 676.201 165.514 676.201 167.266V186.969H670.733V167.266C670.733 164.924 670.193 163.111 669.114 161.828C668.055 160.525 666.436 159.873 664.257 159.873C662.648 159.873 661.141 160.26 659.736 161.034C658.351 161.808 657.068 162.857 655.887 164.18V186.969H650.419V156.024H653.688C654.461 156.024 654.94 156.401 655.123 157.155L655.551 160.515Z" fill="#659858"/>
<path d="M641.797 156.024V186.969H638.559C637.785 186.969 637.297 186.592 637.093 185.839L636.665 182.509C635.321 183.996 633.814 185.197 632.144 186.114C630.474 187.01 628.56 187.458 626.401 187.458C624.711 187.458 623.214 187.183 621.911 186.633C620.628 186.063 619.548 185.269 618.673 184.25C617.797 183.232 617.135 182 616.687 180.554C616.26 179.108 616.046 177.509 616.046 175.758V156.024H621.483V175.758C621.483 178.1 622.013 179.912 623.072 181.195C624.151 182.478 625.79 183.12 627.99 183.12C629.599 183.12 631.096 182.743 632.48 181.99C633.886 181.216 635.179 180.157 636.36 178.813V156.024H641.797ZM626.707 147.593C626.707 148.061 626.615 148.499 626.432 148.907C626.249 149.314 625.994 149.67 625.668 149.976C625.342 150.281 624.966 150.526 624.538 150.709C624.131 150.892 623.693 150.984 623.224 150.984C622.776 150.984 622.349 150.892 621.941 150.709C621.534 150.526 621.168 150.281 620.842 149.976C620.536 149.67 620.292 149.314 620.109 148.907C619.925 148.499 619.834 148.061 619.834 147.593C619.834 147.125 619.925 146.677 620.109 146.249C620.292 145.821 620.536 145.455 620.842 145.149C621.168 144.823 621.534 144.569 621.941 144.386C622.349 144.202 622.776 144.111 623.224 144.111C623.693 144.111 624.131 144.202 624.538 144.386C624.966 144.569 625.342 144.823 625.668 145.149C625.994 145.455 626.249 145.821 626.432 146.249C626.615 146.677 626.707 147.125 626.707 147.593ZM638.345 147.593C638.345 148.061 638.254 148.499 638.071 148.907C637.887 149.314 637.633 149.67 637.307 149.976C637.001 150.281 636.635 150.526 636.207 150.709C635.8 150.892 635.362 150.984 634.894 150.984C634.425 150.984 633.977 150.892 633.55 150.709C633.142 150.526 632.786 150.281 632.48 149.976C632.175 149.67 631.93 149.314 631.747 148.907C631.564 148.499 631.472 148.061 631.472 147.593C631.472 147.125 631.564 146.677 631.747 146.249C631.93 145.821 632.175 145.455 632.48 145.149C632.786 144.823 633.142 144.569 633.55 144.386C633.977 144.202 634.425 144.111 634.894 144.111C635.362 144.111 635.8 144.202 636.207 144.386C636.635 144.569 637.001 144.823 637.307 145.149C637.633 145.455 637.887 145.821 638.071 146.249C638.254 146.677 638.345 147.125 638.345 147.593Z" fill="#659858"/>
<path d="M599.259 162.225C600.237 160.107 601.438 158.458 602.864 157.277C604.289 156.075 606.031 155.474 608.088 155.474C608.739 155.474 609.36 155.546 609.951 155.688C610.562 155.831 611.102 156.055 611.57 156.36L611.173 160.423C611.051 160.932 610.745 161.187 610.256 161.187C609.971 161.187 609.554 161.126 609.004 161.004C608.454 160.881 607.833 160.82 607.141 160.82C606.163 160.82 605.287 160.963 604.513 161.248C603.76 161.533 603.078 161.961 602.467 162.531C601.876 163.081 601.337 163.773 600.848 164.608C600.379 165.423 599.952 166.36 599.565 167.419V186.969H594.097V156.024H597.213C597.803 156.024 598.211 156.136 598.435 156.36C598.659 156.584 598.811 156.971 598.893 157.521L599.259 162.225Z" fill="#659858"/>
<path d="M586.786 165.922V182.723C584.587 184.311 582.235 185.503 579.73 186.297C577.245 187.071 574.516 187.458 571.543 187.458C568.02 187.458 564.843 186.918 562.012 185.839C559.181 184.739 556.758 183.212 554.742 181.257C552.746 179.281 551.208 176.919 550.129 174.17C549.05 171.42 548.51 168.396 548.51 165.097C548.51 161.757 549.029 158.712 550.068 155.963C551.127 153.214 552.624 150.862 554.558 148.907C556.493 146.931 558.845 145.404 561.615 144.324C564.385 143.245 567.48 142.705 570.901 142.705C572.632 142.705 574.241 142.838 575.728 143.103C577.215 143.347 578.589 143.714 579.852 144.202C581.114 144.671 582.285 145.251 583.365 145.943C584.444 146.616 585.452 147.379 586.389 148.235L584.709 150.923C584.444 151.33 584.098 151.595 583.67 151.717C583.263 151.819 582.805 151.717 582.296 151.412C581.807 151.126 581.247 150.78 580.616 150.373C579.984 149.966 579.21 149.579 578.294 149.212C577.398 148.825 576.329 148.499 575.086 148.235C573.864 147.97 572.408 147.837 570.718 147.837C568.254 147.837 566.024 148.245 564.028 149.059C562.032 149.854 560.332 151.004 558.927 152.511C557.522 153.998 556.442 155.81 555.689 157.949C554.935 160.067 554.558 162.449 554.558 165.097C554.558 167.846 554.945 170.31 555.719 172.489C556.513 174.648 557.634 176.491 559.079 178.019C560.546 179.526 562.317 180.676 564.395 181.47C566.472 182.265 568.804 182.662 571.39 182.662C573.427 182.662 575.229 182.438 576.797 181.99C578.386 181.521 579.933 180.88 581.44 180.065V170.443H574.628C574.241 170.443 573.926 170.331 573.681 170.107C573.457 169.883 573.345 169.608 573.345 169.282V165.922H586.786Z" fill="#659858"/>
<path d="M525.906 161.126C525.662 161.574 525.285 161.798 524.776 161.798C524.471 161.798 524.124 161.686 523.737 161.462C523.35 161.238 522.872 160.993 522.302 160.729C521.752 160.443 521.09 160.189 520.316 159.965C519.542 159.721 518.626 159.598 517.567 159.598C516.65 159.598 515.826 159.721 515.092 159.965C514.359 160.189 513.728 160.505 513.198 160.912C512.689 161.319 512.292 161.798 512.007 162.348C511.742 162.877 511.61 163.458 511.61 164.089C511.61 164.883 511.834 165.545 512.282 166.074C512.75 166.604 513.361 167.062 514.115 167.449C514.868 167.836 515.724 168.182 516.681 168.488C517.638 168.773 518.616 169.088 519.613 169.435C520.632 169.761 521.619 170.127 522.577 170.534C523.534 170.942 524.389 171.451 525.143 172.062C525.896 172.673 526.497 173.426 526.945 174.322C527.413 175.198 527.647 176.257 527.647 177.499C527.647 178.925 527.393 180.249 526.884 181.47C526.375 182.672 525.621 183.721 524.623 184.617C523.625 185.493 522.403 186.185 520.958 186.694C519.512 187.203 517.842 187.458 515.948 187.458C513.789 187.458 511.834 187.112 510.083 186.419C508.331 185.706 506.845 184.8 505.623 183.7L506.906 181.623C507.069 181.358 507.262 181.155 507.486 181.012C507.71 180.87 507.995 180.798 508.341 180.798C508.708 180.798 509.095 180.941 509.502 181.226C509.909 181.511 510.398 181.827 510.968 182.173C511.559 182.519 512.272 182.835 513.107 183.12C513.942 183.405 514.98 183.548 516.223 183.548C517.282 183.548 518.208 183.415 519.002 183.151C519.797 182.865 520.459 182.489 520.988 182.02C521.518 181.552 521.905 181.012 522.149 180.401C522.414 179.79 522.546 179.139 522.546 178.446C522.546 177.591 522.312 176.888 521.843 176.338C521.395 175.768 520.795 175.29 520.041 174.903C519.288 174.495 518.422 174.149 517.445 173.864C516.487 173.559 515.5 173.243 514.481 172.917C513.484 172.591 512.496 172.225 511.518 171.817C510.561 171.39 509.706 170.86 508.952 170.229C508.199 169.598 507.588 168.824 507.119 167.907C506.671 166.97 506.447 165.84 506.447 164.516C506.447 163.335 506.692 162.205 507.181 161.126C507.669 160.026 508.382 159.069 509.319 158.254C510.256 157.419 511.406 156.757 512.771 156.269C514.135 155.78 515.693 155.535 517.445 155.535C519.481 155.535 521.304 155.861 522.913 156.513C524.542 157.144 525.947 158.02 527.128 159.14L525.906 161.126Z" fill="#659858"/>
<path d="M496.317 168.121C496.317 166.858 496.133 165.708 495.767 164.669C495.421 163.61 494.901 162.704 494.209 161.95C493.537 161.177 492.712 160.586 491.734 160.179C490.757 159.751 489.647 159.537 488.405 159.537C485.798 159.537 483.731 160.301 482.204 161.828C480.697 163.335 479.76 165.433 479.393 168.121H496.317ZM500.715 182.631C500.043 183.446 499.239 184.159 498.302 184.77C497.365 185.36 496.357 185.849 495.278 186.236C494.219 186.623 493.119 186.908 491.979 187.091C490.838 187.295 489.708 187.397 488.588 187.397C486.45 187.397 484.474 187.04 482.662 186.328C480.87 185.594 479.312 184.535 477.988 183.151C476.685 181.745 475.666 180.014 474.933 177.957C474.2 175.901 473.834 173.538 473.834 170.87C473.834 168.712 474.159 166.696 474.811 164.822C475.483 162.948 476.44 161.329 477.683 159.965C478.925 158.58 480.442 157.501 482.234 156.727C484.026 155.933 486.042 155.535 488.283 155.535C490.136 155.535 491.846 155.851 493.415 156.482C495.003 157.093 496.368 157.989 497.508 159.171C498.669 160.331 499.575 161.777 500.227 163.508C500.878 165.219 501.204 167.174 501.204 169.374C501.204 170.229 501.113 170.799 500.929 171.084C500.746 171.369 500.4 171.512 499.891 171.512H479.21C479.271 173.467 479.536 175.167 480.004 176.613C480.493 178.059 481.165 179.271 482.02 180.249C482.876 181.206 483.894 181.929 485.075 182.417C486.256 182.886 487.58 183.12 489.046 183.12C490.411 183.12 491.582 182.967 492.559 182.662C493.557 182.336 494.412 181.99 495.125 181.623C495.838 181.257 496.429 180.921 496.897 180.615C497.386 180.289 497.803 180.126 498.149 180.126C498.598 180.126 498.944 180.299 499.188 180.646L500.715 182.631Z" fill="#659858"/>
<path d="M463.388 187.458C460.944 187.458 459.06 186.776 457.737 185.411C456.433 184.047 455.782 182.081 455.782 179.515V160.576H452.055C451.729 160.576 451.454 160.484 451.23 160.301C451.006 160.097 450.894 159.792 450.894 159.384V157.216L455.965 156.574L457.217 147.013C457.279 146.707 457.411 146.463 457.615 146.28C457.839 146.076 458.124 145.974 458.47 145.974H461.219V156.635H470.17V160.576H461.219V179.149C461.219 180.452 461.535 181.42 462.166 182.051C462.797 182.682 463.612 182.998 464.61 182.998C465.18 182.998 465.669 182.927 466.076 182.784C466.504 182.621 466.87 182.448 467.176 182.265C467.481 182.081 467.736 181.918 467.94 181.776C468.164 181.613 468.357 181.532 468.52 181.532C468.805 181.532 469.06 181.705 469.284 182.051L470.872 184.647C469.935 185.523 468.805 186.215 467.481 186.725C466.158 187.213 464.793 187.458 463.388 187.458Z" fill="#659858"/>
<path d="M436.796 162.225C437.774 160.107 438.975 158.458 440.401 157.277C441.826 156.075 443.567 155.474 445.624 155.474C446.276 155.474 446.897 155.546 447.488 155.688C448.099 155.831 448.638 156.055 449.107 156.36L448.71 160.423C448.587 160.932 448.282 161.187 447.793 161.187C447.508 161.187 447.091 161.126 446.541 161.004C445.991 160.881 445.37 160.82 444.677 160.82C443.7 160.82 442.824 160.963 442.05 161.248C441.297 161.533 440.614 161.961 440.004 162.531C439.413 163.081 438.873 163.773 438.385 164.608C437.916 165.423 437.488 166.36 437.101 167.419V186.969H431.633V156.024H434.749C435.34 156.024 435.747 156.136 435.971 156.36C436.195 156.584 436.348 156.971 436.429 157.521L436.796 162.225Z" fill="#659858"/>
<path d="M418.035 173.039C415.53 173.121 413.392 173.324 411.62 173.65C409.869 173.956 408.433 174.363 407.313 174.872C406.213 175.381 405.409 175.982 404.9 176.674C404.411 177.367 404.167 178.141 404.167 178.996C404.167 179.811 404.299 180.513 404.564 181.104C404.829 181.694 405.185 182.183 405.633 182.57C406.101 182.937 406.641 183.212 407.252 183.395C407.883 183.558 408.555 183.639 409.268 183.639C410.225 183.639 411.101 183.548 411.895 183.364C412.689 183.161 413.433 182.876 414.125 182.509C414.838 182.143 415.51 181.705 416.141 181.196C416.793 180.686 417.424 180.106 418.035 179.454V173.039ZM400.47 160.393C402.181 158.743 404.024 157.511 406 156.696C407.975 155.882 410.164 155.474 412.567 155.474C414.298 155.474 415.836 155.76 417.18 156.33C418.524 156.9 419.654 157.694 420.571 158.712C421.487 159.731 422.18 160.963 422.648 162.409C423.116 163.855 423.351 165.443 423.351 167.174V186.969H420.937C420.408 186.969 420.001 186.888 419.715 186.725C419.43 186.541 419.206 186.195 419.043 185.686L418.432 182.753C417.618 183.507 416.824 184.179 416.05 184.77C415.276 185.34 414.461 185.829 413.606 186.236C412.751 186.623 411.834 186.918 410.857 187.122C409.899 187.346 408.83 187.458 407.649 187.458C406.448 187.458 405.317 187.295 404.258 186.969C403.199 186.623 402.273 186.114 401.478 185.442C400.705 184.77 400.083 183.924 399.615 182.906C399.167 181.868 398.943 180.646 398.943 179.24C398.943 178.019 399.279 176.848 399.951 175.728C400.623 174.587 401.713 173.579 403.22 172.703C404.727 171.828 406.692 171.115 409.115 170.565C411.539 169.995 414.512 169.669 418.035 169.587V167.174C418.035 164.771 417.516 162.959 416.477 161.737C415.439 160.494 413.922 159.873 411.926 159.873C410.582 159.873 409.451 160.046 408.535 160.393C407.639 160.718 406.855 161.095 406.183 161.523C405.531 161.93 404.961 162.307 404.472 162.653C404.004 162.979 403.535 163.142 403.067 163.142C402.7 163.142 402.385 163.05 402.12 162.867C401.855 162.663 401.631 162.419 401.448 162.134L400.47 160.393Z" fill="#659858"/>
<path d="M351.028 186.969V156.024H354.297C355.071 156.024 355.549 156.401 355.733 157.155L356.13 160.331C357.27 158.926 358.553 157.776 359.979 156.88C361.404 155.984 363.054 155.535 364.927 155.535C367.005 155.535 368.685 156.116 369.968 157.277C371.271 158.438 372.208 160.006 372.778 161.981C373.226 160.861 373.796 159.894 374.489 159.079C375.202 158.264 375.996 157.592 376.872 157.063C377.747 156.533 378.674 156.146 379.651 155.902C380.649 155.658 381.657 155.535 382.676 155.535C384.305 155.535 385.751 155.8 387.013 156.33C388.296 156.839 389.376 157.592 390.251 158.59C391.148 159.588 391.83 160.82 392.298 162.287C392.767 163.732 393.001 165.392 393.001 167.266V186.969H387.533V167.266C387.533 164.842 387.003 163.009 385.944 161.767C384.885 160.505 383.358 159.873 381.362 159.873C380.466 159.873 379.611 160.036 378.796 160.362C378.002 160.667 377.299 161.126 376.688 161.737C376.077 162.348 375.589 163.121 375.222 164.058C374.876 164.975 374.703 166.044 374.703 167.266V186.969H369.235V167.266C369.235 164.781 368.736 162.928 367.738 161.706C366.74 160.484 365.284 159.873 363.37 159.873C362.025 159.873 360.783 160.24 359.643 160.973C358.502 161.686 357.453 162.663 356.496 163.906V186.969H351.028Z" fill="#659858"/>
<path d="M342.186 150.037C342.003 150.342 341.799 150.577 341.575 150.739C341.371 150.882 341.117 150.953 340.811 150.953C340.465 150.953 340.058 150.78 339.59 150.434C339.121 150.088 338.531 149.711 337.818 149.304C337.125 148.876 336.28 148.489 335.282 148.143C334.305 147.797 333.113 147.624 331.708 147.624C330.385 147.624 329.214 147.807 328.195 148.173C327.197 148.52 326.352 148.998 325.66 149.609C324.988 150.22 324.479 150.943 324.132 151.778C323.786 152.593 323.613 153.479 323.613 154.436C323.613 155.658 323.908 156.676 324.499 157.491C325.11 158.285 325.904 158.967 326.882 159.537C327.88 160.107 329 160.606 330.242 161.034C331.505 161.441 332.788 161.869 334.091 162.317C335.415 162.765 336.698 163.274 337.94 163.844C339.203 164.394 340.323 165.097 341.3 165.952C342.298 166.808 343.092 167.856 343.683 169.099C344.294 170.341 344.599 171.868 344.599 173.681C344.599 175.595 344.273 177.397 343.622 179.088C342.97 180.758 342.013 182.214 340.75 183.456C339.508 184.698 337.97 185.676 336.138 186.389C334.325 187.101 332.258 187.458 329.936 187.458C327.085 187.458 324.499 186.949 322.177 185.93C319.856 184.892 317.87 183.497 316.221 181.745L317.931 178.935C318.094 178.711 318.288 178.528 318.512 178.385C318.756 178.222 319.021 178.141 319.306 178.141C319.571 178.141 319.866 178.253 320.192 178.477C320.538 178.68 320.925 178.945 321.353 179.271C321.78 179.597 322.269 179.953 322.819 180.34C323.369 180.727 323.99 181.083 324.682 181.409C325.395 181.735 326.199 182.01 327.096 182.234C327.992 182.438 329 182.54 330.12 182.54C331.525 182.54 332.777 182.346 333.877 181.959C334.977 181.572 335.903 181.033 336.657 180.34C337.431 179.627 338.021 178.782 338.429 177.805C338.836 176.827 339.04 175.738 339.04 174.536C339.04 173.212 338.734 172.133 338.123 171.298C337.533 170.443 336.749 169.73 335.771 169.16C334.794 168.589 333.673 168.111 332.411 167.724C331.148 167.317 329.865 166.909 328.562 166.502C327.258 166.074 325.975 165.586 324.713 165.036C323.45 164.486 322.33 163.773 321.353 162.897C320.375 162.022 319.581 160.932 318.97 159.629C318.379 158.305 318.084 156.676 318.084 154.741C318.084 153.193 318.379 151.697 318.97 150.251C319.581 148.805 320.457 147.522 321.597 146.402C322.758 145.282 324.173 144.386 325.843 143.714C327.533 143.041 329.468 142.705 331.647 142.705C334.091 142.705 336.311 143.092 338.307 143.866C340.323 144.64 342.094 145.76 343.622 147.226L342.186 150.037Z" fill="#659858"/>
</svg>
